<?xml version="1.0" standalone="no"?>
<!DOCTYPE svg PUBLIC "-//W3C//DTD SVG 20010904//EN"
 "http://www.w3.org/TR/2001/REC-SVG-20010904/DTD/svg10.dtd">
<svg version="1.0" xmlns="http://www.w3.org/2000/svg"
 width="512.000000pt" height="512.000000pt" viewBox="0 0 512.000000 512.000000"
 preserveAspectRatio="xMidYMid meet">
<metadata>
Created by potrace 1.14, written by Peter Selinger 2001-2017
</metadata>
<g transform="translate(0.000000,512.000000) scale(0.100000,-0.100000)"
fill="#000000" stroke="none">
<path d="M2350 5114 c-336 -39 -561 -96 -828 -213 -271 -117 -552 -311 -772
-531 -327 -327 -562 -742 -673 -1185 -59 -236 -72 -348 -72 -625 0 -277 13
-389 72 -625 228 -913 950 -1634 1864 -1859 207 -51 328 -67 554 -73 288 -8
514 21 782 98 864 249 1548 959 1766 1834 59 236 72 348 72 625 0 270 -12 376
-66 600 -199 831 -807 1511 -1614 1808 -130 47 -358 105 -505 127 -100 16
-499 28 -580 19z m-383 -1410 l588 -97 170 28 c94 14 363 58 598 97 341 56
431 67 442 58 12 -10 15 -42 15 -156 l0 -144 141 0 c77 0 149 -5 160 -10 19
-10 19 -31 19 -905 0 -833 -1 -895 -17 -904 -10 -5 -58 -7 -108 -4 -118 7
-445 -12 -638 -37 -177 -23 -319 -49 -504 -92 l-133 -32 0 -35 c0 -107 -110
-181 -199 -134 -48 25 -73 63 -79 121 l-4 49 -132 31 c-184 43 -326 70 -503
92 -194 25 -520 44 -641 37 -74 -4 -95 -2 -107 10 -13 13 -15 129 -15 903 0
869 0 890 19 900 11 5 83 10 160 10 l141 0 0 143 c0 136 6 167 32 167 4 0 272
-43 595 -96z"/>
<path d="M1420 2856 l0 -854 28 -6 c49 -10 1049 -176 1061 -176 8 0 11 220 11
855 l0 855 -22 5 c-13 3 -120 21 -238 40 -118 19 -354 57 -523 85 -170 27
-310 50 -313 50 -2 0 -4 -384 -4 -854z m591 461 c123 -32 230 -75 328 -132 64
-37 77 -56 61 -86 -15 -27 -30 -24 -124 26 -191 104 -346 139 -580 134 -133
-4 -150 -2 -160 14 -17 26 4 51 50 59 66 11 364 1 425 -15z m-131 -278 c167
-20 315 -70 452 -151 71 -42 84 -59 68 -89 -14 -25 -45 -24 -81 2 -52 37 -213
107 -294 129 -121 31 -242 41 -363 29 -89 -9 -107 -8 -119 4 -20 19 -9 54 20
63 69 22 202 28 317 13z m119 -318 c140 -31 352 -122 396 -171 19 -21 13 -55
-10 -64 -8 -3 -67 22 -132 54 -199 101 -387 139 -589 119 -103 -9 -134 -2
-134 30 0 10 7 24 14 31 41 33 305 34 455 1z m36 -305 c115 -30 338 -135 361
-170 8 -13 12 -30 8 -39 -11 -31 -43 -30 -92 2 -188 120 -451 180 -665 152
-94 -13 -117 -7 -117 29 0 45 72 60 265 55 109 -3 162 -9 240 -29z"/>
<path d="M3135 3619 c-291 -48 -531 -88 -532 -88 -2 -1 -3 -387 -3 -860 l0
-858 528 88 c290 49 537 91 550 94 l22 5 0 855 c0 808 -1 855 -17 854 -10 -1
-256 -41 -548 -90z m383 -286 c43 -5 56 -11 64 -29 8 -17 8 -27 -2 -38 -10
-13 -34 -15 -149 -9 -227 10 -386 -25 -584 -130 -103 -55 -128 -56 -135 -9 -8
50 255 173 441 207 78 14 279 19 365 8z m-48 -293 c96 -13 108 -17 115 -41 14
-43 -6 -48 -168 -42 -168 6 -244 -2 -371 -43 -80 -26 -199 -81 -248 -115 -31
-23 -61 -24 -78 -4 -22 26 0 53 78 98 211 121 456 175 672 147z m9 -300 c90
-10 117 -25 107 -58 -10 -30 -26 -32 -131 -22 -201 19 -389 -20 -588 -120 -65
-32 -124 -57 -132 -54 -24 10 -28 44 -9 65 29 32 231 127 329 154 145 41 280
52 424 35z m21 -301 c79 -12 98 -27 82 -64 -12 -25 -13 -25 -79 -18 -249 29
-478 -18 -677 -138 -71 -42 -100 -44 -111 -8 -10 30 13 50 123 106 215 112
454 156 662 122z"/>
<path d="M1100 2577 l0 -824 208 -6 c239 -7 442 -27 662 -63 172 -28 477 -96
509 -114 18 -9 21 -20 21 -70 0 -65 21 -100 60 -100 39 0 60 35 60 100 0 50 3
61 21 70 32 18 337 86 509 114 220 36 423 56 663 63 l207 6 0 824 0 823 -120
0 -120 0 0 -730 0 -730 -22 -10 c-13 -5 -282 -53 -598 -106 -316 -52 -578 -98
-582 -100 -11 -7 -1211 197 -1225 208 -10 8 -13 168 -13 739 l0 729 -120 0
-120 0 0 -823z"/>
</g>
</svg>
